/* XPM */
static char * about_xpm[] = {
"32 24 14 1",
" 	c None",
".	c #7885AD",
"+	c #3E569E",
"@	c #173694",
"#	c #03258E",
"$	c #00238E",
"%	c #5266A3",
"&	c #1C3B9A",
"*	c #E2E5F2",
"=	c #556CB3",
"-	c #FFFFFF",
";	c #8D9CCC",
">	c #7184C0",
",	c #AAB5D9",
"                                ",
"                                ",
"            .+@##@+.            ",
"          .@$$$$$$$$@.          ",
"         %$$$$$$$$$$$$%         ",
"        %$$$$$&**&$$$$$%        ",
"       .$$$$$$=--=$$$$$$.       ",
"       @$$$$$$$;;$$$$$$$@       ",
"      .$$$$$$$$$$$$$$$$$$.      ",
"      +$$$$$$&===&$$$$$$$+      ",
"      @$$$$$$$>--=$$$$$$$@      ",
"      #$$$$$$$=--=$$$$$$$#      ",
"      #$$$$$$$=--=$$$$$$$#      ",
"      @$$$$$$$=--=$$$$$$$@      ",
"      +$$$$$$$=--=$$$$$$$+      ",
"      .$$$$$$$=--=$$$$$$$.      ",
"       @$$$$$$=--=$$$$$$@       ",
"       .$$$$$$=--=$$$$$$.       ",
"        %$$$$&;,,;&$$$$%        ",
"         %$$$$$$$$$$$$%         ",
"          .@$$$$$$$$@.          ",
"            .+@##@+.            ",
"                                ",
"                                "};
