/* XPM */
static char * back_xpm[] = {
"32 24 76 1",
" 	c None",
".	c #5E7E5E",
"+	c #66A266",
"@	c #36BE36",
"#	c #76B276",
"$	c #AEAEAE",
"%	c #92D292",
"&	c #4C9C4C",
"*	c #6A826A",
"=	c #AAE6AB",
"-	c #828282",
";	c #74D674",
">	c #749074",
",	c #46BE46",
"'	c #86AA86",
")	c #868686",
"!	c #8E8E8E",
"~	c #BEEEBF",
"{	c #5AC25A",
"]	c #86CE86",
"^	c #829682",
"/	c #9AE29A",
"(	c #627E62",
"_	c #6EC672",
":	c #A2A2A2",
"<	c #B6EAB6",
"[	c #929292",
"}	c #667E66",
"|	c #969696",
"1	c #7EDA7F",
"2	c #8AD28E",
"3	c #9A9A9A",
"4	c #93DE93",
"5	c #A6A6A6",
"6	c #727272",
"7	c #57CE59",
"8	c #66D266",
"9	c #68906A",
"0	c #86DE87",
"a	c #4DCD4F",
"b	c #9EE29F",
"c	c #C6EEC6",
"d	c #7A7A7A",
"e	c #B2E6B2",
"f	c #9E9E9E",
"g	c #62D264",
"h	c #AAAAAA",
"i	c #A2E6A3",
"j	c #40C842",
"k	c #5A9E5A",
"l	c #8ED68E",
"m	c #8ADE8B",
"n	c #7AD67A",
"o	c #AEEAB0",
"p	c #82B682",
"q	c #5ED260",
"r	c #92E293",
"s	c #6ED670",
"t	c #BAEABB",
"u	c #B2EAB3",
"v	c #76DA78",
"w	c #A6E6A7",
"x	c #C2EEC3",
"y	c #6AD66B",
"z	c #CAF2CC",
"A	c #96E297",
"B	c #82DA83",
"C	c #8EDE90",
"D	c #767676",
"E	c #7E7E7E",
"F	c #5AD25E",
"G	c #82DE86",
"H	c #AEE6AE",
"I	c #7ADA7B",
"J	c #78B67A",
"K	c #8A8A8A",
"                                ",
"                 $5::h          ",
"               $:[K^lf$         ",
"              5|)DJ~<K5         ",
"            h3!D9w<uuEf         ",
"          $:[-}2~t<owdf         ",
"         5|)6#ctteHwiD3         ",
"       hfKd9HxttHoibAD3         ",
"      5|-*%cxtuowbb/rD3         ",
"     h3-pcxxt<o=biACmD3         ",
"     :'<zcttuHwi/rCBBD3         ",
"     5pextto=ib/4CmG1D3         ",
"     5|>]<u=wb4rmBBI;D3         ",
"      :!d+4i/ArmBBv;yD3         ",
"       5[E(_ACmB1;;88D3         ",
"        hfKDknB1v;yyqD3         ",
"          :[-.{;s8g77D3         ",
"           h3KD&7g7Fadf         ",
"             :[-.,7aa-f         ",
"              h3!D&jj!5         ",
"                5|K>@f$         ",
"                 $5::h          ",
"                                ",
"                                "};
