/* XPM */
static char * home_xpm[] = {
"32 24 4 1",
" 	c None",
".	c #000000",
"+	c #808080",
"@	c #404040",
"                                ",
"                                ",
"                                ",
"                                ",
"                                ",
"                                ",
"                                ",
"           ...+                 ",
"          ......+               ",
"         ........+    @+        ",
"        ..........+  @.+        ",
"        .   ...........+        ",
"        .     @.......+         ",
"               @.....+          ",
"                 @..+           ",
"                                ",
"                                ",
"                                ",
"                                ",
"                                ",
"                                ",
"                                ",
"                                ",
"                                "};
