/* XPM */
static char * reload_xpm[] = {
"32 24 2 1",
" 	c None",
".	c #C60000",
"                                ",
"                                ",
"                ....            ",
"           ......  .....        ",
"          ..           ...      ",
"         .               .      ",
"        ..    .......    ..     ",
"        .   ...     ..    .     ",
"        .   .        ..   .     ",
"        .   .  .....  .   .     ",
"        .   .  .   ..  .  .     ",
"        .   .  .    .  .  .     ",
"        .   .       .  .  .     ",
"        .   ..      .  .  .     ",
"        .    ........  .  .     ",
"        ..             .  .     ",
"         .             .  .     ",
"          ..          ..  .     ",
"           ..        ..         ",
"             ...    ..          ",
"                .....           ",
"                                ",
"                                ",
"                                "};
