/* XPM */
static char * root_xpm[] = {
"32 24 38 1",
" 	c None",
".	c #B7B7B7",
"+	c #606060",
"@	c #6F6F6F",
"#	c #979797",
"$	c #171717",
"%	c #040404",
"&	c #292929",
"*	c #808080",
"=	c #7B7B7B",
"-	c #000000",
";	c #8C8C8C",
">	c #515151",
",	c #101010",
"'	c #1F1F1F",
")	c #202020",
"!	c #111111",
"~	c #626262",
"{	c #8F8F8F",
"]	c #797979",
"^	c #505050",
"/	c #232323",
"(	c #141414",
"_	c #070707",
":	c #707070",
"<	c #838383",
"[	c #121212",
"}	c #020202",
"|	c #696969",
"1	c #B1B1B1",
"2	c #4C4C4C",
"3	c #303030",
"4	c #0B0B0B",
"5	c #282828",
"6	c #080808",
"7	c #656565",
"8	c #4A4A4A",
"9	c #B2B2B2",
"                                ",
"                                ",
"                                ",
"                                ",
"                                ",
"                   .            ",
"                   +@#          ",
"                  $%&*          ",
"                 =--;           ",
"                >,'             ",
"               )!$~             ",
"              {--]              ",
"             ^/(!               ",
"             $_:                ",
"           <[}|1                ",
"          2345                  ",
"          6-7                   ",
"           89                   ",
"                                ",
"                                ",
"                                ",
"                                ",
"                                ",
"                                "};
