/* XPM */
static char * stop_xpm[] = {
"32 24 76 1",
" 	c None",
".	c #140C0A",
"+	c #62524A",
"@	c #8E8E86",
"#	c #94553A",
"$	c #927E72",
"%	c #42271B",
"&	c #CC9062",
"*	c #72422E",
"=	c #B8714C",
"-	c #986A4D",
";	c #C48E68",
">	c #7A6E68",
",	c #473E38",
"'	c #A29F9C",
")	c #845338",
"!	c #B08260",
"~	c #A06746",
"{	c #CEA571",
"]	c #7E5E4A",
"^	c #563C2C",
"/	c #1E120A",
"(	c #BE8158",
"_	c #B07854",
":	c #8D6043",
"<	c #564E46",
"[	c #A96948",
"}	c #AC9C92",
"|	c #3B2118",
"1	c #C88157",
"2	c #985A3F",
"3	c #A5948A",
"4	c #5F3C28",
"5	c #42362A",
"6	c #E6A979",
"7	c #ADA49F",
"8	c #834E36",
"9	c #947460",
"0	c #C9885B",
"a	c #A46242",
"b	c #A66E4E",
"c	c #CD9A68",
"d	c #BA7850",
"e	c #2B231D",
"f	c #B6A492",
"g	c #866A52",
"h	c #8A6E5E",
"i	c #C47950",
"j	c #5A4A46",
"k	c #553625",
"l	c #C49264",
"m	c #69412C",
"n	c #4D2E1F",
"o	c #D89666",
"p	c #9A6041",
"q	c #7E4A34",
"r	c #9E7252",
"s	c #D6A370",
"t	c #AFAAAA",
"u	c #A68878",
"v	c #734931",
"w	c #726863",
"x	c #C28A5E",
"y	c #684E40",
"z	c #D08A5D",
"A	c #8B796D",
"B	c #DAAA73",
"C	c #7B6961",
"D	c #98938E",
"E	c #A06E4E",
"F	c #655A52",
"G	c #8D553B",
"H	c #B26A46",
"I	c #BAACA0",
"J	c #C59970",
"K	c #B1704C",
"               }I               ",
"              7m_    fI         ",
"          37  }%[   $K!         ",
"          yx7 '|~7  y::         ",
"          %K9 '|p3  k-9         ",
"          52h  |~u tnd9   t     ",
"          ,:;' %29 D*(3  hx     ",
"          wmof 5-r C8_} Dk)7    ",
"          @|0('jp;7,8p  ^kw     ",
"           eKs3w8c'n~b C4^'     ",
"           Fv0J>)0Ak~9AmkF      ",
"           t%Kc;1d=qKg*#nD      ",
"      Au7   +az&iiH#=0~qw       ",
"     'm(H3  @#iz1dKp[0z:        ",
"      F4zd3 'q[=ida2p=o!        ",
"       Ck1;3yG0ld=Kvm8d-        ",
"        Cmx()b&cc(=:8#KE        ",
"         <-l1&JJ{&0[#2KE        ",
"          %(o6Bs{c0Hp~(-        ",
"          +^Ko66Bs0=pa(:        ",
"           e4[zoBs0=aaK]        ",
"           te%v~(1ia222C        ",
"             e.nmvG*44k'        ",
"              @+5e..e,'         "};
